<mxfile host="app.diagrams.net" modified="2023-08-25T00:26:26.776Z" agent="Mozilla/5.0 (Windows NT 10.0; Win64; x64) AppleWebKit/537.36 (KHTML, like Gecko) Chrome/116.0.0.0 Safari/537.36" etag="klGD-R_qAC9PUcFTgC4e" version="21.6.9" type="device">
  <diagram name="페이지-1" id="FXdm9EhiizhV5ZvjEC0G">
    <mxGraphModel dx="1834" dy="1150" grid="0" gridSize="10" guides="1" tooltips="1" connect="1" arrows="1" fold="1" page="0" pageScale="1" pageWidth="827" pageHeight="1169" math="0" shadow="0">
      <root>
        <mxCell id="0" />
        <mxCell id="1" parent="0" />
        <mxCell id="F0JioWCo4Qzg_TsHQdJf-38" value="" style="rounded=0;whiteSpace=wrap;html=1;" parent="1" vertex="1">
          <mxGeometry x="12" y="1474" width="739" height="1050" as="geometry" />
        </mxCell>
        <mxCell id="-Qgl4ysdJtrphELewiQ6-1" value="" style="rounded=0;whiteSpace=wrap;html=1;" parent="1" vertex="1">
          <mxGeometry x="10" y="-100" width="740" height="540" as="geometry" />
        </mxCell>
        <object label="User" id="-Qgl4ysdJtrphELewiQ6-2">
          <mxCell style="shape=umlActor;verticalLabelPosition=bottom;verticalAlign=top;html=1;outlineConnect=0;" parent="1" vertex="1">
            <mxGeometry x="-90" y="-24.660000000000004" width="30" height="60" as="geometry" />
          </mxCell>
        </object>
        <mxCell id="-Qgl4ysdJtrphELewiQ6-11" style="edgeStyle=orthogonalEdgeStyle;rounded=0;orthogonalLoop=1;jettySize=auto;html=1;exitX=0.5;exitY=1;exitDx=0;exitDy=0;" parent="1" source="-Qgl4ysdJtrphELewiQ6-4" target="-Qgl4ysdJtrphELewiQ6-6" edge="1">
          <mxGeometry relative="1" as="geometry">
            <mxPoint x="270" y="119.99999999999989" as="sourcePoint" />
          </mxGeometry>
        </mxCell>
        <mxCell id="-Qgl4ysdJtrphELewiQ6-4" value="회원가입 페이지로 이동한다." style="ellipse;whiteSpace=wrap;html=1;fontSize=11;" parent="1" vertex="1">
          <mxGeometry x="190" y="-12.44" width="160" height="35.56" as="geometry" />
        </mxCell>
        <mxCell id="F0JioWCo4Qzg_TsHQdJf-168" style="edgeStyle=orthogonalEdgeStyle;rounded=0;orthogonalLoop=1;jettySize=auto;html=1;exitX=0.5;exitY=1;exitDx=0;exitDy=0;" parent="1" source="-Qgl4ysdJtrphELewiQ6-5" target="-Qgl4ysdJtrphELewiQ6-13" edge="1">
          <mxGeometry relative="1" as="geometry" />
        </mxCell>
        <mxCell id="-Qgl4ysdJtrphELewiQ6-5" value="회원정보를 입력한다." style="ellipse;whiteSpace=wrap;html=1;fontSize=11;" parent="1" vertex="1">
          <mxGeometry x="200" y="90" width="140" height="33.33" as="geometry" />
        </mxCell>
        <mxCell id="-Qgl4ysdJtrphELewiQ6-12" style="edgeStyle=orthogonalEdgeStyle;rounded=0;orthogonalLoop=1;jettySize=auto;html=1;exitX=0.5;exitY=1;exitDx=0;exitDy=0;" parent="1" source="-Qgl4ysdJtrphELewiQ6-6" target="-Qgl4ysdJtrphELewiQ6-5" edge="1">
          <mxGeometry relative="1" as="geometry" />
        </mxCell>
        <mxCell id="-Qgl4ysdJtrphELewiQ6-6" value="약관에 동의한다." style="ellipse;whiteSpace=wrap;html=1;fontSize=11;" parent="1" vertex="1">
          <mxGeometry x="210" y="40" width="120" height="33.34" as="geometry" />
        </mxCell>
        <mxCell id="-Qgl4ysdJtrphELewiQ6-7" value="Member" style="shape=umlActor;verticalLabelPosition=bottom;verticalAlign=top;html=1;outlineConnect=0;fillColor=#f8cecc;strokeColor=#b85450;" parent="1" vertex="1">
          <mxGeometry x="-80" y="210" width="30" height="60" as="geometry" />
        </mxCell>
        <mxCell id="-Qgl4ysdJtrphELewiQ6-10" value="" style="endArrow=classic;html=1;rounded=0;entryX=0;entryY=0.5;entryDx=0;entryDy=0;" parent="1" target="F0JioWCo4Qzg_TsHQdJf-143" edge="1">
          <mxGeometry width="50" height="50" relative="1" as="geometry">
            <mxPoint x="-50" y="5" as="sourcePoint" />
            <mxPoint x="150" y="-101" as="targetPoint" />
          </mxGeometry>
        </mxCell>
        <mxCell id="-Qgl4ysdJtrphELewiQ6-19" style="edgeStyle=orthogonalEdgeStyle;rounded=0;orthogonalLoop=1;jettySize=auto;html=1;exitX=0.5;exitY=1;exitDx=0;exitDy=0;" parent="1" source="-Qgl4ysdJtrphELewiQ6-13" target="-Qgl4ysdJtrphELewiQ6-17" edge="1">
          <mxGeometry relative="1" as="geometry" />
        </mxCell>
        <mxCell id="-Qgl4ysdJtrphELewiQ6-13" value="로그인 페이지로 이동한다." style="ellipse;whiteSpace=wrap;html=1;fontSize=11;" parent="1" vertex="1">
          <mxGeometry x="200" y="150" width="140" height="33.33" as="geometry" />
        </mxCell>
        <mxCell id="-Qgl4ysdJtrphELewiQ6-16" value="" style="endArrow=classic;html=1;rounded=0;entryX=0;entryY=0.5;entryDx=0;entryDy=0;exitX=1;exitY=0.5;exitDx=0;exitDy=0;" parent="1" source="F0JioWCo4Qzg_TsHQdJf-145" target="-Qgl4ysdJtrphELewiQ6-13" edge="1">
          <mxGeometry width="50" height="50" relative="1" as="geometry">
            <mxPoint x="105" y="148.56" as="sourcePoint" />
            <mxPoint x="470" y="197.56" as="targetPoint" />
          </mxGeometry>
        </mxCell>
        <mxCell id="-Qgl4ysdJtrphELewiQ6-17" value="로그인 정보를 입력한다." style="ellipse;whiteSpace=wrap;html=1;fontSize=11;" parent="1" vertex="1">
          <mxGeometry x="200" y="210" width="140" height="33.33" as="geometry" />
        </mxCell>
        <mxCell id="-Qgl4ysdJtrphELewiQ6-20" value="&lt;span style=&quot;font-size: 15px;&quot;&gt;회원 관리&lt;/span&gt;" style="text;html=1;align=center;verticalAlign=middle;resizable=0;points=[];autosize=1;strokeColor=none;fillColor=none;fontSize=14;fontStyle=1" parent="1" vertex="1">
          <mxGeometry x="320" y="-130" width="90" height="30" as="geometry" />
        </mxCell>
        <mxCell id="-Qgl4ysdJtrphELewiQ6-35" value="administrator" style="shape=umlActor;verticalLabelPosition=bottom;verticalAlign=top;html=1;outlineConnect=0;" parent="1" vertex="1">
          <mxGeometry x="792" y="115.88" width="30" height="60" as="geometry" />
        </mxCell>
        <mxCell id="-Qgl4ysdJtrphELewiQ6-37" value="관리자 페이지" style="ellipse;whiteSpace=wrap;html=1;fontSize=11;fillColor=#e1d5e7;strokeColor=#9673a6;" parent="1" vertex="1">
          <mxGeometry x="601" y="126.88" width="100" height="35.56" as="geometry" />
        </mxCell>
        <mxCell id="-Qgl4ysdJtrphELewiQ6-38" value="회원강퇴" style="ellipse;whiteSpace=wrap;html=1;fontSize=11;" parent="1" vertex="1">
          <mxGeometry x="363.67" y="23.12" width="100" height="35.56" as="geometry" />
        </mxCell>
        <mxCell id="-Qgl4ysdJtrphELewiQ6-39" value="회원목록" style="ellipse;whiteSpace=wrap;html=1;fontSize=11;" parent="1" vertex="1">
          <mxGeometry x="463.66999999999996" y="-29" width="100" height="35.56" as="geometry" />
        </mxCell>
        <mxCell id="-Qgl4ysdJtrphELewiQ6-41" value="" style="endArrow=classic;html=1;rounded=0;exitX=0;exitY=0.5;exitDx=0;exitDy=0;entryX=1;entryY=0.5;entryDx=0;entryDy=0;dashed=1;" parent="1" source="-Qgl4ysdJtrphELewiQ6-37" target="-Qgl4ysdJtrphELewiQ6-5" edge="1">
          <mxGeometry width="50" height="50" relative="1" as="geometry">
            <mxPoint x="420" y="356.88" as="sourcePoint" />
            <mxPoint x="470" y="306.88" as="targetPoint" />
          </mxGeometry>
        </mxCell>
        <mxCell id="-Qgl4ysdJtrphELewiQ6-42" value="" style="endArrow=classic;html=1;rounded=0;exitX=0;exitY=0.5;exitDx=0;exitDy=0;entryX=1;entryY=1;entryDx=0;entryDy=0;dashed=1;" parent="1" source="-Qgl4ysdJtrphELewiQ6-37" target="-Qgl4ysdJtrphELewiQ6-38" edge="1">
          <mxGeometry width="50" height="50" relative="1" as="geometry">
            <mxPoint x="511" y="386.88" as="sourcePoint" />
            <mxPoint x="561" y="336.88" as="targetPoint" />
          </mxGeometry>
        </mxCell>
        <mxCell id="-Qgl4ysdJtrphELewiQ6-43" value="" style="endArrow=classic;html=1;rounded=0;entryX=0.5;entryY=1;entryDx=0;entryDy=0;exitX=0;exitY=0.5;exitDx=0;exitDy=0;fillColor=#ffe6cc;strokeColor=#330000;dashed=1;" parent="1" source="-Qgl4ysdJtrphELewiQ6-37" target="-Qgl4ysdJtrphELewiQ6-39" edge="1">
          <mxGeometry width="50" height="50" relative="1" as="geometry">
            <mxPoint x="531" y="126.88" as="sourcePoint" />
            <mxPoint x="561" y="336.88" as="targetPoint" />
          </mxGeometry>
        </mxCell>
        <mxCell id="-Qgl4ysdJtrphELewiQ6-50" value="&amp;lt;&amp;lt;include&amp;gt;&amp;gt;" style="text;html=1;strokeColor=none;fillColor=none;align=center;verticalAlign=middle;whiteSpace=wrap;rounded=0;rotation=30;" parent="1" vertex="1">
          <mxGeometry x="491" y="73.44" width="60" height="30" as="geometry" />
        </mxCell>
        <mxCell id="-Qgl4ysdJtrphELewiQ6-52" value="" style="endArrow=classic;html=1;rounded=0;entryX=1;entryY=0.5;entryDx=0;entryDy=0;" parent="1" source="-Qgl4ysdJtrphELewiQ6-35" target="-Qgl4ysdJtrphELewiQ6-37" edge="1">
          <mxGeometry width="50" height="50" relative="1" as="geometry">
            <mxPoint x="356" y="226.88" as="sourcePoint" />
            <mxPoint x="406" y="176.88" as="targetPoint" />
          </mxGeometry>
        </mxCell>
        <mxCell id="F0JioWCo4Qzg_TsHQdJf-1" value="&amp;lt;&amp;lt;include&amp;gt;&amp;gt;" style="text;html=1;strokeColor=none;fillColor=none;align=center;verticalAlign=middle;whiteSpace=wrap;rounded=0;rotation=55;" parent="1" vertex="1">
          <mxGeometry x="535.33" y="59.44" width="60" height="30" as="geometry" />
        </mxCell>
        <mxCell id="F0JioWCo4Qzg_TsHQdJf-2" value="&amp;lt;&amp;lt;include&amp;gt;&amp;gt;" style="text;html=1;strokeColor=none;fillColor=none;align=center;verticalAlign=middle;whiteSpace=wrap;rounded=0;rotation=10;" parent="1" vertex="1">
          <mxGeometry x="434" y="102.88" width="60" height="30" as="geometry" />
        </mxCell>
        <mxCell id="F0JioWCo4Qzg_TsHQdJf-15" value="커뮤니티" style="ellipse;whiteSpace=wrap;html=1;fontSize=11;fillColor=#f8cecc;strokeColor=#b85450;" parent="1" vertex="1">
          <mxGeometry x="71" y="1605" width="89.51" height="39" as="geometry" />
        </mxCell>
        <mxCell id="F0JioWCo4Qzg_TsHQdJf-16" value="" style="endArrow=classic;html=1;rounded=0;entryX=0;entryY=0.5;entryDx=0;entryDy=0;" parent="1" target="F0JioWCo4Qzg_TsHQdJf-15" edge="1">
          <mxGeometry width="50" height="50" relative="1" as="geometry">
            <mxPoint x="-33" y="1994" as="sourcePoint" />
            <mxPoint x="57" y="1491.33" as="targetPoint" />
          </mxGeometry>
        </mxCell>
        <mxCell id="F0JioWCo4Qzg_TsHQdJf-17" value="글쓰기 페이지로 이동한다." style="ellipse;whiteSpace=wrap;html=1;fontSize=11;" parent="1" vertex="1">
          <mxGeometry x="332" y="1588" width="160" height="33.33" as="geometry" />
        </mxCell>
        <mxCell id="F0JioWCo4Qzg_TsHQdJf-18" value="상세 글보기로 이동한다." style="ellipse;whiteSpace=wrap;html=1;fontSize=11;" parent="1" vertex="1">
          <mxGeometry x="332" y="1539" width="160" height="33.33" as="geometry" />
        </mxCell>
        <mxCell id="F0JioWCo4Qzg_TsHQdJf-19" value="본인이 작성한 글을 수정한다." style="ellipse;whiteSpace=wrap;html=1;fontSize=11;" parent="1" vertex="1">
          <mxGeometry x="332" y="1637" width="160" height="33.33" as="geometry" />
        </mxCell>
        <mxCell id="F0JioWCo4Qzg_TsHQdJf-20" value="본인이 작성한 글을 삭제한다." style="ellipse;whiteSpace=wrap;html=1;fontSize=11;" parent="1" vertex="1">
          <mxGeometry x="332" y="1689" width="160" height="33.33" as="geometry" />
        </mxCell>
        <mxCell id="F0JioWCo4Qzg_TsHQdJf-21" value="" style="endArrow=classic;html=1;rounded=0;entryX=0;entryY=0.5;entryDx=0;entryDy=0;exitX=1;exitY=0.5;exitDx=0;exitDy=0;dashed=1;" parent="1" source="F0JioWCo4Qzg_TsHQdJf-15" target="F0JioWCo4Qzg_TsHQdJf-18" edge="1">
          <mxGeometry width="50" height="50" relative="1" as="geometry">
            <mxPoint x="222" y="1630" as="sourcePoint" />
            <mxPoint x="452" y="1559" as="targetPoint" />
          </mxGeometry>
        </mxCell>
        <mxCell id="F0JioWCo4Qzg_TsHQdJf-22" value="" style="endArrow=classic;html=1;rounded=0;entryX=0;entryY=0.5;entryDx=0;entryDy=0;exitX=1;exitY=0.5;exitDx=0;exitDy=0;dashed=1;" parent="1" source="F0JioWCo4Qzg_TsHQdJf-15" target="F0JioWCo4Qzg_TsHQdJf-17" edge="1">
          <mxGeometry width="50" height="50" relative="1" as="geometry">
            <mxPoint x="292" y="1629" as="sourcePoint" />
            <mxPoint x="452" y="1559" as="targetPoint" />
          </mxGeometry>
        </mxCell>
        <mxCell id="F0JioWCo4Qzg_TsHQdJf-23" value="" style="endArrow=classic;html=1;rounded=0;exitX=1;exitY=0.5;exitDx=0;exitDy=0;entryX=0;entryY=0.5;entryDx=0;entryDy=0;dashed=1;" parent="1" source="F0JioWCo4Qzg_TsHQdJf-15" target="F0JioWCo4Qzg_TsHQdJf-19" edge="1">
          <mxGeometry width="50" height="50" relative="1" as="geometry">
            <mxPoint x="292" y="1629.5" as="sourcePoint" />
            <mxPoint x="452" y="1559" as="targetPoint" />
          </mxGeometry>
        </mxCell>
        <mxCell id="F0JioWCo4Qzg_TsHQdJf-24" value="" style="endArrow=classic;html=1;rounded=0;entryX=0;entryY=0.5;entryDx=0;entryDy=0;exitX=1;exitY=0.5;exitDx=0;exitDy=0;dashed=1;" parent="1" source="F0JioWCo4Qzg_TsHQdJf-15" target="F0JioWCo4Qzg_TsHQdJf-20" edge="1">
          <mxGeometry width="50" height="50" relative="1" as="geometry">
            <mxPoint x="292" y="1629" as="sourcePoint" />
            <mxPoint x="452" y="1559" as="targetPoint" />
          </mxGeometry>
        </mxCell>
        <mxCell id="F0JioWCo4Qzg_TsHQdJf-25" value="&amp;lt;&amp;lt;extend&amp;gt;&amp;gt;" style="text;html=1;strokeColor=none;fillColor=none;align=center;verticalAlign=middle;whiteSpace=wrap;rounded=0;rotation=-25;" parent="1" vertex="1">
          <mxGeometry x="226" y="1563" width="60" height="30" as="geometry" />
        </mxCell>
        <mxCell id="F0JioWCo4Qzg_TsHQdJf-26" value="커뮤니티 관리" style="ellipse;whiteSpace=wrap;html=1;fontSize=11;fillColor=#e1d5e7;strokeColor=#9673a6;" parent="1" vertex="1">
          <mxGeometry x="611" y="1611.4899999999998" width="100" height="35.56" as="geometry" />
        </mxCell>
        <mxCell id="F0JioWCo4Qzg_TsHQdJf-27" value="" style="endArrow=classic;html=1;rounded=0;exitX=0;exitY=0.5;exitDx=0;exitDy=0;entryX=1;entryY=0.5;entryDx=0;entryDy=0;dashed=1;" parent="1" source="F0JioWCo4Qzg_TsHQdJf-26" target="F0JioWCo4Qzg_TsHQdJf-18" edge="1">
          <mxGeometry width="50" height="50" relative="1" as="geometry">
            <mxPoint x="327" y="1609" as="sourcePoint" />
            <mxPoint x="377" y="1559" as="targetPoint" />
          </mxGeometry>
        </mxCell>
        <mxCell id="F0JioWCo4Qzg_TsHQdJf-28" value="" style="endArrow=classic;html=1;rounded=0;entryX=1;entryY=0.5;entryDx=0;entryDy=0;exitX=0;exitY=0.5;exitDx=0;exitDy=0;dashed=1;" parent="1" source="F0JioWCo4Qzg_TsHQdJf-26" target="F0JioWCo4Qzg_TsHQdJf-17" edge="1">
          <mxGeometry width="50" height="50" relative="1" as="geometry">
            <mxPoint x="447" y="1627" as="sourcePoint" />
            <mxPoint x="377" y="1559" as="targetPoint" />
          </mxGeometry>
        </mxCell>
        <mxCell id="F0JioWCo4Qzg_TsHQdJf-29" value="" style="endArrow=classic;html=1;rounded=0;exitX=0;exitY=0.5;exitDx=0;exitDy=0;entryX=1;entryY=0.5;entryDx=0;entryDy=0;dashed=1;" parent="1" source="F0JioWCo4Qzg_TsHQdJf-26" target="F0JioWCo4Qzg_TsHQdJf-19" edge="1">
          <mxGeometry width="50" height="50" relative="1" as="geometry">
            <mxPoint x="327" y="1609" as="sourcePoint" />
            <mxPoint x="377" y="1559" as="targetPoint" />
          </mxGeometry>
        </mxCell>
        <mxCell id="F0JioWCo4Qzg_TsHQdJf-30" value="" style="endArrow=classic;html=1;rounded=0;exitX=0;exitY=0.5;exitDx=0;exitDy=0;entryX=1;entryY=0.5;entryDx=0;entryDy=0;dashed=1;" parent="1" source="F0JioWCo4Qzg_TsHQdJf-26" target="F0JioWCo4Qzg_TsHQdJf-20" edge="1">
          <mxGeometry width="50" height="50" relative="1" as="geometry">
            <mxPoint x="327" y="1609" as="sourcePoint" />
            <mxPoint x="377" y="1559" as="targetPoint" />
          </mxGeometry>
        </mxCell>
        <mxCell id="F0JioWCo4Qzg_TsHQdJf-31" value="&amp;lt;&amp;lt;include&amp;gt;&amp;gt;" style="text;html=1;strokeColor=none;fillColor=none;align=center;verticalAlign=middle;whiteSpace=wrap;rounded=0;rotation=30;" parent="1" vertex="1">
          <mxGeometry x="526" y="1572" width="60" height="30" as="geometry" />
        </mxCell>
        <mxCell id="F0JioWCo4Qzg_TsHQdJf-32" value="&amp;lt;&amp;lt;extend&amp;gt;&amp;gt;" style="text;html=1;strokeColor=none;fillColor=none;align=center;verticalAlign=middle;whiteSpace=wrap;rounded=0;rotation=-10;" parent="1" vertex="1">
          <mxGeometry x="238" y="1588.33" width="60" height="30" as="geometry" />
        </mxCell>
        <mxCell id="F0JioWCo4Qzg_TsHQdJf-33" value="&amp;lt;&amp;lt;extend&amp;gt;&amp;gt;" style="text;html=1;strokeColor=none;fillColor=none;align=center;verticalAlign=middle;whiteSpace=wrap;rounded=0;rotation=10;" parent="1" vertex="1">
          <mxGeometry x="239" y="1620.33" width="60" height="30" as="geometry" />
        </mxCell>
        <mxCell id="F0JioWCo4Qzg_TsHQdJf-34" value="&amp;lt;&amp;lt;extend&amp;gt;&amp;gt;" style="text;html=1;strokeColor=none;fillColor=none;align=center;verticalAlign=middle;whiteSpace=wrap;rounded=0;rotation=25;" parent="1" vertex="1">
          <mxGeometry x="234" y="1650" width="60" height="30" as="geometry" />
        </mxCell>
        <mxCell id="F0JioWCo4Qzg_TsHQdJf-35" value="&amp;lt;&amp;lt;include&amp;gt;&amp;gt;" style="text;html=1;strokeColor=none;fillColor=none;align=center;verticalAlign=middle;whiteSpace=wrap;rounded=0;rotation=15;" parent="1" vertex="1">
          <mxGeometry x="509.9999999999999" y="1595.75" width="72.65" height="23.15" as="geometry" />
        </mxCell>
        <mxCell id="F0JioWCo4Qzg_TsHQdJf-36" value="&amp;lt;&amp;lt;include&amp;gt;&amp;gt;" style="text;html=1;strokeColor=none;fillColor=none;align=center;verticalAlign=middle;whiteSpace=wrap;rounded=0;rotation=-10;" parent="1" vertex="1">
          <mxGeometry x="510.9999999999999" y="1623.9" width="72.65" height="23.15" as="geometry" />
        </mxCell>
        <mxCell id="F0JioWCo4Qzg_TsHQdJf-37" value="&amp;lt;&amp;lt;include&amp;gt;&amp;gt;" style="text;html=1;strokeColor=none;fillColor=none;align=center;verticalAlign=middle;whiteSpace=wrap;rounded=0;rotation=-30;" parent="1" vertex="1">
          <mxGeometry x="512.9999999999999" y="1649.75" width="72.65" height="23.15" as="geometry" />
        </mxCell>
        <mxCell id="F0JioWCo4Qzg_TsHQdJf-39" value="&lt;span style=&quot;font-size: 15px;&quot;&gt;게시판&lt;/span&gt;" style="text;html=1;align=center;verticalAlign=middle;resizable=0;points=[];autosize=1;strokeColor=none;fillColor=none;fontSize=14;fontStyle=1" parent="1" vertex="1">
          <mxGeometry x="331" y="1444" width="70" height="30" as="geometry" />
        </mxCell>
        <mxCell id="F0JioWCo4Qzg_TsHQdJf-40" value="Member" style="shape=umlActor;verticalLabelPosition=bottom;verticalAlign=top;html=1;outlineConnect=0;fillColor=#f8cecc;strokeColor=#b85450;" parent="1" vertex="1">
          <mxGeometry x="-73" y="1984" width="30" height="60" as="geometry" />
        </mxCell>
        <mxCell id="F0JioWCo4Qzg_TsHQdJf-42" value="administrator" style="shape=umlActor;verticalLabelPosition=bottom;verticalAlign=top;html=1;outlineConnect=0;" parent="1" vertex="1">
          <mxGeometry x="881" y="1984" width="30" height="60" as="geometry" />
        </mxCell>
        <mxCell id="F0JioWCo4Qzg_TsHQdJf-43" value="FAQ" style="ellipse;whiteSpace=wrap;html=1;fontSize=11;fillColor=#f8cecc;strokeColor=#b85450;" parent="1" vertex="1">
          <mxGeometry x="70" y="2359" width="91.8" height="40" as="geometry" />
        </mxCell>
        <mxCell id="F0JioWCo4Qzg_TsHQdJf-44" value="글쓰기 페이지로 이동한다." style="ellipse;whiteSpace=wrap;html=1;fontSize=11;" parent="1" vertex="1">
          <mxGeometry x="325" y="2348" width="160" height="33.33" as="geometry" />
        </mxCell>
        <mxCell id="F0JioWCo4Qzg_TsHQdJf-45" value="FAQ 목록으로 이동한다." style="ellipse;whiteSpace=wrap;html=1;fontSize=11;" parent="1" vertex="1">
          <mxGeometry x="325" y="2299" width="160" height="33.33" as="geometry" />
        </mxCell>
        <mxCell id="F0JioWCo4Qzg_TsHQdJf-46" value="해당 글의 내용을 수정한다." style="ellipse;whiteSpace=wrap;html=1;fontSize=11;" parent="1" vertex="1">
          <mxGeometry x="325" y="2397" width="160" height="33.33" as="geometry" />
        </mxCell>
        <mxCell id="F0JioWCo4Qzg_TsHQdJf-47" value="해당 글의 내용을 삭제한다." style="ellipse;whiteSpace=wrap;html=1;fontSize=11;" parent="1" vertex="1">
          <mxGeometry x="325" y="2449" width="160" height="33.33" as="geometry" />
        </mxCell>
        <mxCell id="F0JioWCo4Qzg_TsHQdJf-48" value="" style="endArrow=classic;html=1;rounded=0;entryX=0;entryY=0.5;entryDx=0;entryDy=0;exitX=1;exitY=0.5;exitDx=0;exitDy=0;dashed=1;" parent="1" source="F0JioWCo4Qzg_TsHQdJf-43" target="F0JioWCo4Qzg_TsHQdJf-45" edge="1">
          <mxGeometry width="50" height="50" relative="1" as="geometry">
            <mxPoint x="215" y="2390" as="sourcePoint" />
            <mxPoint x="445" y="2319" as="targetPoint" />
          </mxGeometry>
        </mxCell>
        <mxCell id="F0JioWCo4Qzg_TsHQdJf-52" value="&amp;lt;&amp;lt;extend&amp;gt;&amp;gt;" style="text;html=1;strokeColor=none;fillColor=none;align=center;verticalAlign=middle;whiteSpace=wrap;rounded=0;rotation=-20;" parent="1" vertex="1">
          <mxGeometry x="200" y="2330.75" width="60" height="30" as="geometry" />
        </mxCell>
        <mxCell id="F0JioWCo4Qzg_TsHQdJf-53" value="FAQ 관리" style="ellipse;whiteSpace=wrap;html=1;fontSize=11;fillColor=#e1d5e7;strokeColor=#9673a6;" parent="1" vertex="1">
          <mxGeometry x="602" y="2371.7200000000003" width="100" height="35.56" as="geometry" />
        </mxCell>
        <mxCell id="F0JioWCo4Qzg_TsHQdJf-54" value="" style="endArrow=classic;html=1;rounded=0;exitX=0;exitY=0.5;exitDx=0;exitDy=0;entryX=1;entryY=0.5;entryDx=0;entryDy=0;dashed=1;" parent="1" source="F0JioWCo4Qzg_TsHQdJf-53" target="F0JioWCo4Qzg_TsHQdJf-45" edge="1">
          <mxGeometry width="50" height="50" relative="1" as="geometry">
            <mxPoint x="320" y="2369" as="sourcePoint" />
            <mxPoint x="370" y="2319" as="targetPoint" />
          </mxGeometry>
        </mxCell>
        <mxCell id="F0JioWCo4Qzg_TsHQdJf-55" value="" style="endArrow=classic;html=1;rounded=0;entryX=1;entryY=0.5;entryDx=0;entryDy=0;exitX=0;exitY=0.5;exitDx=0;exitDy=0;dashed=1;" parent="1" source="F0JioWCo4Qzg_TsHQdJf-53" target="F0JioWCo4Qzg_TsHQdJf-44" edge="1">
          <mxGeometry width="50" height="50" relative="1" as="geometry">
            <mxPoint x="440" y="2387" as="sourcePoint" />
            <mxPoint x="370" y="2319" as="targetPoint" />
          </mxGeometry>
        </mxCell>
        <mxCell id="F0JioWCo4Qzg_TsHQdJf-56" value="" style="endArrow=classic;html=1;rounded=0;exitX=0;exitY=0.5;exitDx=0;exitDy=0;entryX=1;entryY=0.5;entryDx=0;entryDy=0;dashed=1;" parent="1" source="F0JioWCo4Qzg_TsHQdJf-53" target="F0JioWCo4Qzg_TsHQdJf-46" edge="1">
          <mxGeometry width="50" height="50" relative="1" as="geometry">
            <mxPoint x="320" y="2369" as="sourcePoint" />
            <mxPoint x="370" y="2319" as="targetPoint" />
          </mxGeometry>
        </mxCell>
        <mxCell id="F0JioWCo4Qzg_TsHQdJf-57" value="" style="endArrow=classic;html=1;rounded=0;exitX=0;exitY=0.5;exitDx=0;exitDy=0;entryX=1;entryY=0.5;entryDx=0;entryDy=0;dashed=1;" parent="1" source="F0JioWCo4Qzg_TsHQdJf-53" target="F0JioWCo4Qzg_TsHQdJf-47" edge="1">
          <mxGeometry width="50" height="50" relative="1" as="geometry">
            <mxPoint x="320" y="2369" as="sourcePoint" />
            <mxPoint x="370" y="2319" as="targetPoint" />
          </mxGeometry>
        </mxCell>
        <mxCell id="F0JioWCo4Qzg_TsHQdJf-58" value="&amp;lt;&amp;lt;include&amp;gt;&amp;gt;" style="text;html=1;strokeColor=none;fillColor=none;align=center;verticalAlign=middle;whiteSpace=wrap;rounded=0;rotation=36;" parent="1" vertex="1">
          <mxGeometry x="514" y="2327" width="60" height="30" as="geometry" />
        </mxCell>
        <mxCell id="F0JioWCo4Qzg_TsHQdJf-62" value="&amp;lt;&amp;lt;include&amp;gt;&amp;gt;" style="text;html=1;strokeColor=none;fillColor=none;align=center;verticalAlign=middle;whiteSpace=wrap;rounded=0;rotation=15;" parent="1" vertex="1">
          <mxGeometry x="503.9999999999999" y="2356.75" width="72.65" height="23.15" as="geometry" />
        </mxCell>
        <mxCell id="F0JioWCo4Qzg_TsHQdJf-63" value="&amp;lt;&amp;lt;include&amp;gt;&amp;gt;" style="text;html=1;strokeColor=none;fillColor=none;align=center;verticalAlign=middle;whiteSpace=wrap;rounded=0;rotation=-10;" parent="1" vertex="1">
          <mxGeometry x="500.9999999999999" y="2383.9" width="72.65" height="23.15" as="geometry" />
        </mxCell>
        <mxCell id="F0JioWCo4Qzg_TsHQdJf-64" value="&amp;lt;&amp;lt;include&amp;gt;&amp;gt;" style="text;html=1;strokeColor=none;fillColor=none;align=center;verticalAlign=middle;whiteSpace=wrap;rounded=0;rotation=-30;" parent="1" vertex="1">
          <mxGeometry x="498.9999999999999" y="2413.75" width="72.65" height="23.15" as="geometry" />
        </mxCell>
        <mxCell id="F0JioWCo4Qzg_TsHQdJf-65" value="공지사항" style="ellipse;whiteSpace=wrap;html=1;fontSize=11;fillColor=#f8cecc;strokeColor=#b85450;" parent="1" vertex="1">
          <mxGeometry x="60.32" y="1860.67" width="91.8" height="40" as="geometry" />
        </mxCell>
        <mxCell id="F0JioWCo4Qzg_TsHQdJf-66" value="글쓰기 페이지로 이동한다." style="ellipse;whiteSpace=wrap;html=1;fontSize=11;" parent="1" vertex="1">
          <mxGeometry x="319.32" y="1840.67" width="160" height="33.33" as="geometry" />
        </mxCell>
        <mxCell id="F0JioWCo4Qzg_TsHQdJf-67" value="상세 글보기로 이동한다." style="ellipse;whiteSpace=wrap;html=1;fontSize=11;" parent="1" vertex="1">
          <mxGeometry x="320.67" y="1790.67" width="160" height="33.33" as="geometry" />
        </mxCell>
        <mxCell id="F0JioWCo4Qzg_TsHQdJf-68" value="본인이 작성한 글을 수정한다." style="ellipse;whiteSpace=wrap;html=1;fontSize=11;" parent="1" vertex="1">
          <mxGeometry x="323.67" y="1898.67" width="160" height="33.33" as="geometry" />
        </mxCell>
        <mxCell id="F0JioWCo4Qzg_TsHQdJf-69" value="본인이 작성한 글을 삭제한다." style="ellipse;whiteSpace=wrap;html=1;fontSize=11;" parent="1" vertex="1">
          <mxGeometry x="323.67" y="1950.67" width="160" height="33.33" as="geometry" />
        </mxCell>
        <mxCell id="F0JioWCo4Qzg_TsHQdJf-70" value="" style="endArrow=classic;html=1;rounded=0;entryX=0;entryY=0.5;entryDx=0;entryDy=0;exitX=1;exitY=0.5;exitDx=0;exitDy=0;dashed=1;" parent="1" source="F0JioWCo4Qzg_TsHQdJf-65" target="F0JioWCo4Qzg_TsHQdJf-67" edge="1">
          <mxGeometry width="50" height="50" relative="1" as="geometry">
            <mxPoint x="205.32" y="1891.67" as="sourcePoint" />
            <mxPoint x="229.31999999999863" y="1833.005" as="targetPoint" />
          </mxGeometry>
        </mxCell>
        <mxCell id="F0JioWCo4Qzg_TsHQdJf-72" value="공지사항 관리" style="ellipse;whiteSpace=wrap;html=1;fontSize=11;fillColor=#e1d5e7;strokeColor=#9673a6;" parent="1" vertex="1">
          <mxGeometry x="579.6700000000001" y="1873.3900000000003" width="100" height="35.56" as="geometry" />
        </mxCell>
        <mxCell id="F0JioWCo4Qzg_TsHQdJf-73" value="" style="endArrow=classic;html=1;rounded=0;exitX=0;exitY=0.5;exitDx=0;exitDy=0;entryX=1;entryY=0.5;entryDx=0;entryDy=0;dashed=1;" parent="1" source="F0JioWCo4Qzg_TsHQdJf-72" target="F0JioWCo4Qzg_TsHQdJf-67" edge="1">
          <mxGeometry width="50" height="50" relative="1" as="geometry">
            <mxPoint x="284.67" y="1870.67" as="sourcePoint" />
            <mxPoint x="334.67" y="1820.67" as="targetPoint" />
          </mxGeometry>
        </mxCell>
        <mxCell id="F0JioWCo4Qzg_TsHQdJf-74" value="" style="endArrow=classic;html=1;rounded=0;entryX=1;entryY=0.5;entryDx=0;entryDy=0;exitX=0;exitY=0.5;exitDx=0;exitDy=0;dashed=1;" parent="1" source="F0JioWCo4Qzg_TsHQdJf-72" target="F0JioWCo4Qzg_TsHQdJf-66" edge="1">
          <mxGeometry width="50" height="50" relative="1" as="geometry">
            <mxPoint x="404.67" y="1888.67" as="sourcePoint" />
            <mxPoint x="334.67" y="1820.67" as="targetPoint" />
          </mxGeometry>
        </mxCell>
        <mxCell id="F0JioWCo4Qzg_TsHQdJf-75" value="" style="endArrow=classic;html=1;rounded=0;exitX=0;exitY=0.5;exitDx=0;exitDy=0;entryX=1;entryY=0.5;entryDx=0;entryDy=0;dashed=1;" parent="1" source="F0JioWCo4Qzg_TsHQdJf-72" target="F0JioWCo4Qzg_TsHQdJf-68" edge="1">
          <mxGeometry width="50" height="50" relative="1" as="geometry">
            <mxPoint x="284.67" y="1870.67" as="sourcePoint" />
            <mxPoint x="334.67" y="1820.67" as="targetPoint" />
          </mxGeometry>
        </mxCell>
        <mxCell id="F0JioWCo4Qzg_TsHQdJf-76" value="" style="endArrow=classic;html=1;rounded=0;exitX=0;exitY=0.5;exitDx=0;exitDy=0;entryX=1;entryY=0.5;entryDx=0;entryDy=0;dashed=1;" parent="1" source="F0JioWCo4Qzg_TsHQdJf-72" target="F0JioWCo4Qzg_TsHQdJf-69" edge="1">
          <mxGeometry width="50" height="50" relative="1" as="geometry">
            <mxPoint x="284.67" y="1870.67" as="sourcePoint" />
            <mxPoint x="334.67" y="1820.67" as="targetPoint" />
          </mxGeometry>
        </mxCell>
        <mxCell id="F0JioWCo4Qzg_TsHQdJf-77" value="&amp;lt;&amp;lt;include&amp;gt;&amp;gt;" style="text;html=1;strokeColor=none;fillColor=none;align=center;verticalAlign=middle;whiteSpace=wrap;rounded=0;rotation=40;" parent="1" vertex="1">
          <mxGeometry x="505.96999999999997" y="1829.42" width="60" height="30" as="geometry" />
        </mxCell>
        <mxCell id="F0JioWCo4Qzg_TsHQdJf-78" value="&amp;lt;&amp;lt;include&amp;gt;&amp;gt;" style="text;html=1;strokeColor=none;fillColor=none;align=center;verticalAlign=middle;whiteSpace=wrap;rounded=0;rotation=20;" parent="1" vertex="1">
          <mxGeometry x="488.3199999999999" y="1851.8500000000004" width="72.65" height="23.15" as="geometry" />
        </mxCell>
        <mxCell id="F0JioWCo4Qzg_TsHQdJf-79" value="&amp;lt;&amp;lt;include&amp;gt;&amp;gt;" style="text;html=1;strokeColor=none;fillColor=none;align=center;verticalAlign=middle;whiteSpace=wrap;rounded=0;rotation=-10;" parent="1" vertex="1">
          <mxGeometry x="482.6699999999999" y="1886.5700000000002" width="72.65" height="23.15" as="geometry" />
        </mxCell>
        <mxCell id="F0JioWCo4Qzg_TsHQdJf-80" value="&amp;lt;&amp;lt;include&amp;gt;&amp;gt;" style="text;html=1;strokeColor=none;fillColor=none;align=center;verticalAlign=middle;whiteSpace=wrap;rounded=0;rotation=-40;" parent="1" vertex="1">
          <mxGeometry x="488.3199999999999" y="1914.67" width="72.65" height="23.15" as="geometry" />
        </mxCell>
        <mxCell id="F0JioWCo4Qzg_TsHQdJf-97" value="QnA" style="ellipse;whiteSpace=wrap;html=1;fontSize=11;fillColor=#f8cecc;strokeColor=#b85450;" parent="1" vertex="1">
          <mxGeometry x="66" y="2109" width="98.69" height="43" as="geometry" />
        </mxCell>
        <mxCell id="F0JioWCo4Qzg_TsHQdJf-98" value="" style="endArrow=classic;html=1;rounded=0;entryX=0;entryY=0.5;entryDx=0;entryDy=0;" parent="1" target="F0JioWCo4Qzg_TsHQdJf-97" edge="1">
          <mxGeometry width="50" height="50" relative="1" as="geometry">
            <mxPoint x="-27" y="2066" as="sourcePoint" />
            <mxPoint x="68" y="2285.33" as="targetPoint" />
          </mxGeometry>
        </mxCell>
        <mxCell id="F0JioWCo4Qzg_TsHQdJf-99" value="글쓰기 페이지로 이동한다." style="ellipse;whiteSpace=wrap;html=1;fontSize=11;" parent="1" vertex="1">
          <mxGeometry x="321" y="2098" width="160" height="33.33" as="geometry" />
        </mxCell>
        <mxCell id="F0JioWCo4Qzg_TsHQdJf-100" value="상세 글보기로 이동한다." style="ellipse;whiteSpace=wrap;html=1;fontSize=11;" parent="1" vertex="1">
          <mxGeometry x="321" y="2049" width="160" height="33.33" as="geometry" />
        </mxCell>
        <mxCell id="F0JioWCo4Qzg_TsHQdJf-101" value="해당 글의 내용을 수정한다." style="ellipse;whiteSpace=wrap;html=1;fontSize=11;" parent="1" vertex="1">
          <mxGeometry x="321" y="2147" width="160" height="33.33" as="geometry" />
        </mxCell>
        <mxCell id="F0JioWCo4Qzg_TsHQdJf-102" value="본인이 작성한 글을 삭제한다." style="ellipse;whiteSpace=wrap;html=1;fontSize=11;" parent="1" vertex="1">
          <mxGeometry x="321" y="2199" width="160" height="33.33" as="geometry" />
        </mxCell>
        <mxCell id="F0JioWCo4Qzg_TsHQdJf-103" value="" style="endArrow=classic;html=1;rounded=0;entryX=0;entryY=0.5;entryDx=0;entryDy=0;exitX=1;exitY=0.5;exitDx=0;exitDy=0;dashed=1;" parent="1" source="F0JioWCo4Qzg_TsHQdJf-97" target="F0JioWCo4Qzg_TsHQdJf-100" edge="1">
          <mxGeometry width="50" height="50" relative="1" as="geometry">
            <mxPoint x="211" y="2140" as="sourcePoint" />
            <mxPoint x="441" y="2069" as="targetPoint" />
          </mxGeometry>
        </mxCell>
        <mxCell id="F0JioWCo4Qzg_TsHQdJf-104" value="" style="endArrow=classic;html=1;rounded=0;entryX=0;entryY=0.5;entryDx=0;entryDy=0;exitX=1;exitY=0.5;exitDx=0;exitDy=0;dashed=1;" parent="1" source="F0JioWCo4Qzg_TsHQdJf-97" target="F0JioWCo4Qzg_TsHQdJf-99" edge="1">
          <mxGeometry width="50" height="50" relative="1" as="geometry">
            <mxPoint x="281" y="2139" as="sourcePoint" />
            <mxPoint x="441" y="2069" as="targetPoint" />
          </mxGeometry>
        </mxCell>
        <mxCell id="F0JioWCo4Qzg_TsHQdJf-105" value="" style="endArrow=classic;html=1;rounded=0;exitX=1;exitY=0.5;exitDx=0;exitDy=0;entryX=0;entryY=0.5;entryDx=0;entryDy=0;dashed=1;" parent="1" source="F0JioWCo4Qzg_TsHQdJf-97" target="F0JioWCo4Qzg_TsHQdJf-101" edge="1">
          <mxGeometry width="50" height="50" relative="1" as="geometry">
            <mxPoint x="281" y="2139.5" as="sourcePoint" />
            <mxPoint x="441" y="2069" as="targetPoint" />
          </mxGeometry>
        </mxCell>
        <mxCell id="F0JioWCo4Qzg_TsHQdJf-106" value="" style="endArrow=classic;html=1;rounded=0;entryX=0;entryY=0.5;entryDx=0;entryDy=0;exitX=1;exitY=0.5;exitDx=0;exitDy=0;dashed=1;" parent="1" source="F0JioWCo4Qzg_TsHQdJf-97" target="F0JioWCo4Qzg_TsHQdJf-102" edge="1">
          <mxGeometry width="50" height="50" relative="1" as="geometry">
            <mxPoint x="281" y="2139" as="sourcePoint" />
            <mxPoint x="441" y="2069" as="targetPoint" />
          </mxGeometry>
        </mxCell>
        <mxCell id="F0JioWCo4Qzg_TsHQdJf-107" value="&amp;lt;&amp;lt;extend&amp;gt;&amp;gt;" style="text;html=1;strokeColor=none;fillColor=none;align=center;verticalAlign=middle;whiteSpace=wrap;rounded=0;rotation=-25;" parent="1" vertex="1">
          <mxGeometry x="218" y="2072" width="60" height="30" as="geometry" />
        </mxCell>
        <mxCell id="F0JioWCo4Qzg_TsHQdJf-108" value="QnA 관리" style="ellipse;whiteSpace=wrap;html=1;fontSize=11;fillColor=#e1d5e7;strokeColor=#9673a6;" parent="1" vertex="1">
          <mxGeometry x="611" y="2121.7200000000003" width="100" height="35.56" as="geometry" />
        </mxCell>
        <mxCell id="F0JioWCo4Qzg_TsHQdJf-109" value="" style="endArrow=classic;html=1;rounded=0;exitX=0;exitY=0.5;exitDx=0;exitDy=0;entryX=1;entryY=0.5;entryDx=0;entryDy=0;dashed=1;" parent="1" source="F0JioWCo4Qzg_TsHQdJf-108" target="F0JioWCo4Qzg_TsHQdJf-100" edge="1">
          <mxGeometry width="50" height="50" relative="1" as="geometry">
            <mxPoint x="316" y="2119" as="sourcePoint" />
            <mxPoint x="366" y="2069" as="targetPoint" />
          </mxGeometry>
        </mxCell>
        <mxCell id="F0JioWCo4Qzg_TsHQdJf-110" value="" style="endArrow=classic;html=1;rounded=0;entryX=1;entryY=0.5;entryDx=0;entryDy=0;exitX=0;exitY=0.5;exitDx=0;exitDy=0;dashed=1;" parent="1" source="F0JioWCo4Qzg_TsHQdJf-108" target="F0JioWCo4Qzg_TsHQdJf-99" edge="1">
          <mxGeometry width="50" height="50" relative="1" as="geometry">
            <mxPoint x="436" y="2137" as="sourcePoint" />
            <mxPoint x="366" y="2069" as="targetPoint" />
          </mxGeometry>
        </mxCell>
        <mxCell id="F0JioWCo4Qzg_TsHQdJf-111" value="" style="endArrow=classic;html=1;rounded=0;exitX=0;exitY=0.5;exitDx=0;exitDy=0;entryX=1;entryY=0.5;entryDx=0;entryDy=0;dashed=1;" parent="1" source="F0JioWCo4Qzg_TsHQdJf-108" target="F0JioWCo4Qzg_TsHQdJf-101" edge="1">
          <mxGeometry width="50" height="50" relative="1" as="geometry">
            <mxPoint x="316" y="2119" as="sourcePoint" />
            <mxPoint x="366" y="2069" as="targetPoint" />
          </mxGeometry>
        </mxCell>
        <mxCell id="F0JioWCo4Qzg_TsHQdJf-112" value="" style="endArrow=classic;html=1;rounded=0;exitX=0;exitY=0.5;exitDx=0;exitDy=0;entryX=1;entryY=0.5;entryDx=0;entryDy=0;dashed=1;" parent="1" source="F0JioWCo4Qzg_TsHQdJf-108" target="F0JioWCo4Qzg_TsHQdJf-102" edge="1">
          <mxGeometry width="50" height="50" relative="1" as="geometry">
            <mxPoint x="316" y="2119" as="sourcePoint" />
            <mxPoint x="366" y="2069" as="targetPoint" />
          </mxGeometry>
        </mxCell>
        <mxCell id="F0JioWCo4Qzg_TsHQdJf-113" value="&amp;lt;&amp;lt;include&amp;gt;&amp;gt;" style="text;html=1;strokeColor=none;fillColor=none;align=center;verticalAlign=middle;whiteSpace=wrap;rounded=0;rotation=36;" parent="1" vertex="1">
          <mxGeometry x="521" y="2079" width="60" height="30" as="geometry" />
        </mxCell>
        <mxCell id="F0JioWCo4Qzg_TsHQdJf-114" value="&amp;lt;&amp;lt;extend&amp;gt;&amp;gt;" style="text;html=1;strokeColor=none;fillColor=none;align=center;verticalAlign=middle;whiteSpace=wrap;rounded=0;rotation=-10;" parent="1" vertex="1">
          <mxGeometry x="241" y="2098" width="60" height="30" as="geometry" />
        </mxCell>
        <mxCell id="F0JioWCo4Qzg_TsHQdJf-115" value="&amp;lt;&amp;lt;extend&amp;gt;&amp;gt;" style="text;html=1;strokeColor=none;fillColor=none;align=center;verticalAlign=middle;whiteSpace=wrap;rounded=0;rotation=15;" parent="1" vertex="1">
          <mxGeometry x="241" y="2131.33" width="60" height="30" as="geometry" />
        </mxCell>
        <mxCell id="F0JioWCo4Qzg_TsHQdJf-116" value="&amp;lt;&amp;lt;extend&amp;gt;&amp;gt;" style="text;html=1;strokeColor=none;fillColor=none;align=center;verticalAlign=middle;whiteSpace=wrap;rounded=0;rotation=30;" parent="1" vertex="1">
          <mxGeometry x="231" y="2161.33" width="60" height="30" as="geometry" />
        </mxCell>
        <mxCell id="F0JioWCo4Qzg_TsHQdJf-117" value="&amp;lt;&amp;lt;include&amp;gt;&amp;gt;" style="text;html=1;strokeColor=none;fillColor=none;align=center;verticalAlign=middle;whiteSpace=wrap;rounded=0;rotation=15;" parent="1" vertex="1">
          <mxGeometry x="499.9999999999999" y="2106.75" width="72.65" height="23.15" as="geometry" />
        </mxCell>
        <mxCell id="F0JioWCo4Qzg_TsHQdJf-118" value="&amp;lt;&amp;lt;include&amp;gt;&amp;gt;" style="text;html=1;strokeColor=none;fillColor=none;align=center;verticalAlign=middle;whiteSpace=wrap;rounded=0;rotation=-10;" parent="1" vertex="1">
          <mxGeometry x="499.9999999999999" y="2132.9" width="72.65" height="23.15" as="geometry" />
        </mxCell>
        <mxCell id="F0JioWCo4Qzg_TsHQdJf-119" value="&amp;lt;&amp;lt;include&amp;gt;&amp;gt;" style="text;html=1;strokeColor=none;fillColor=none;align=center;verticalAlign=middle;whiteSpace=wrap;rounded=0;rotation=-30;" parent="1" vertex="1">
          <mxGeometry x="497.9999999999999" y="2164.75" width="72.65" height="23.15" as="geometry" />
        </mxCell>
        <mxCell id="F0JioWCo4Qzg_TsHQdJf-121" value="" style="endArrow=classic;html=1;rounded=0;entryX=0;entryY=0.5;entryDx=0;entryDy=0;" parent="1" target="F0JioWCo4Qzg_TsHQdJf-43" edge="1" source="F0JioWCo4Qzg_TsHQdJf-40">
          <mxGeometry width="50" height="50" relative="1" as="geometry">
            <mxPoint x="31" y="2848" as="sourcePoint" />
            <mxPoint x="1157" y="2828" as="targetPoint" />
          </mxGeometry>
        </mxCell>
        <mxCell id="F0JioWCo4Qzg_TsHQdJf-122" value="" style="endArrow=classic;html=1;rounded=0;entryX=0;entryY=0.5;entryDx=0;entryDy=0;" parent="1" target="F0JioWCo4Qzg_TsHQdJf-65" edge="1">
          <mxGeometry width="50" height="50" relative="1" as="geometry">
            <mxPoint x="-29" y="2014" as="sourcePoint" />
            <mxPoint x="1097" y="1984" as="targetPoint" />
          </mxGeometry>
        </mxCell>
        <mxCell id="F0JioWCo4Qzg_TsHQdJf-127" value="" style="endArrow=classic;html=1;rounded=0;entryX=1;entryY=0.5;entryDx=0;entryDy=0;" parent="1" target="F0JioWCo4Qzg_TsHQdJf-26" edge="1">
          <mxGeometry width="50" height="50" relative="1" as="geometry">
            <mxPoint x="871" y="1984" as="sourcePoint" />
            <mxPoint x="1097" y="1794" as="targetPoint" />
          </mxGeometry>
        </mxCell>
        <mxCell id="F0JioWCo4Qzg_TsHQdJf-128" value="" style="endArrow=classic;html=1;rounded=0;entryX=1;entryY=0.5;entryDx=0;entryDy=0;" parent="1" target="F0JioWCo4Qzg_TsHQdJf-53" edge="1">
          <mxGeometry width="50" height="50" relative="1" as="geometry">
            <mxPoint x="861" y="1994" as="sourcePoint" />
            <mxPoint x="1097" y="1794" as="targetPoint" />
          </mxGeometry>
        </mxCell>
        <mxCell id="F0JioWCo4Qzg_TsHQdJf-129" value="" style="endArrow=classic;html=1;rounded=0;entryX=1;entryY=0.5;entryDx=0;entryDy=0;" parent="1" target="F0JioWCo4Qzg_TsHQdJf-72" edge="1">
          <mxGeometry width="50" height="50" relative="1" as="geometry">
            <mxPoint x="861" y="2014" as="sourcePoint" />
            <mxPoint x="917" y="2044" as="targetPoint" />
          </mxGeometry>
        </mxCell>
        <mxCell id="F0JioWCo4Qzg_TsHQdJf-130" value="" style="endArrow=classic;html=1;rounded=0;entryX=1;entryY=0.5;entryDx=0;entryDy=0;" parent="1" target="F0JioWCo4Qzg_TsHQdJf-108" edge="1">
          <mxGeometry width="50" height="50" relative="1" as="geometry">
            <mxPoint x="871" y="2034" as="sourcePoint" />
            <mxPoint x="1017" y="2114" as="targetPoint" />
          </mxGeometry>
        </mxCell>
        <mxCell id="F0JioWCo4Qzg_TsHQdJf-133" style="edgeStyle=orthogonalEdgeStyle;rounded=0;orthogonalLoop=1;jettySize=auto;html=1;exitX=0.5;exitY=1;exitDx=0;exitDy=0;" parent="1" source="F0JioWCo4Qzg_TsHQdJf-131" target="F0JioWCo4Qzg_TsHQdJf-132" edge="1">
          <mxGeometry relative="1" as="geometry" />
        </mxCell>
        <mxCell id="F0JioWCo4Qzg_TsHQdJf-131" value="마이페이지로 이동한다." style="ellipse;whiteSpace=wrap;html=1;fontSize=11;" parent="1" vertex="1">
          <mxGeometry x="190" y="290" width="160" height="35.56" as="geometry" />
        </mxCell>
        <mxCell id="F0JioWCo4Qzg_TsHQdJf-132" value="회원정보를 수정한다." style="ellipse;whiteSpace=wrap;html=1;fontSize=11;" parent="1" vertex="1">
          <mxGeometry x="190" y="356" width="160" height="35.56" as="geometry" />
        </mxCell>
        <mxCell id="F0JioWCo4Qzg_TsHQdJf-134" value="" style="endArrow=classic;html=1;rounded=0;entryX=1;entryY=0.5;entryDx=0;entryDy=0;exitX=0;exitY=0.5;exitDx=0;exitDy=0;dashed=1;" parent="1" source="-Qgl4ysdJtrphELewiQ6-37" target="F0JioWCo4Qzg_TsHQdJf-132" edge="1">
          <mxGeometry width="50" height="50" relative="1" as="geometry">
            <mxPoint x="855" y="241.88" as="sourcePoint" />
            <mxPoint x="630" y="276.88" as="targetPoint" />
          </mxGeometry>
        </mxCell>
        <mxCell id="F0JioWCo4Qzg_TsHQdJf-135" value="" style="endArrow=classic;html=1;rounded=0;entryX=1;entryY=0.5;entryDx=0;entryDy=0;exitX=0;exitY=0.5;exitDx=0;exitDy=0;dashed=1;" parent="1" source="-Qgl4ysdJtrphELewiQ6-37" target="F0JioWCo4Qzg_TsHQdJf-131" edge="1">
          <mxGeometry width="50" height="50" relative="1" as="geometry">
            <mxPoint x="850" y="236.88" as="sourcePoint" />
            <mxPoint x="450" y="316.88" as="targetPoint" />
          </mxGeometry>
        </mxCell>
        <mxCell id="F0JioWCo4Qzg_TsHQdJf-136" value="&amp;lt;&amp;lt;include&amp;gt;&amp;gt;" style="text;html=1;strokeColor=none;fillColor=none;align=center;verticalAlign=middle;whiteSpace=wrap;rounded=0;rotation=-35;" parent="1" vertex="1">
          <mxGeometry x="430.5" y="211.88" width="60" height="30" as="geometry" />
        </mxCell>
        <mxCell id="F0JioWCo4Qzg_TsHQdJf-137" value="&amp;lt;&amp;lt;include&amp;gt;&amp;gt;" style="text;html=1;strokeColor=none;fillColor=none;align=center;verticalAlign=middle;whiteSpace=wrap;rounded=0;rotation=-45;" parent="1" vertex="1">
          <mxGeometry x="441.35" y="238.88" width="60" height="30" as="geometry" />
        </mxCell>
        <mxCell id="F0JioWCo4Qzg_TsHQdJf-138" value="" style="rounded=0;whiteSpace=wrap;html=1;" parent="1" vertex="1">
          <mxGeometry x="9" y="568" width="737" height="349" as="geometry" />
        </mxCell>
        <mxCell id="F0JioWCo4Qzg_TsHQdJf-139" value="&lt;span style=&quot;font-size: 15px;&quot;&gt;소개&lt;/span&gt;" style="text;html=1;align=center;verticalAlign=middle;resizable=0;points=[];autosize=1;strokeColor=none;fillColor=none;fontSize=14;fontStyle=1" parent="1" vertex="1">
          <mxGeometry x="336" y="538" width="50" height="30" as="geometry" />
        </mxCell>
        <object label="User" id="F0JioWCo4Qzg_TsHQdJf-140">
          <mxCell style="shape=umlActor;verticalLabelPosition=bottom;verticalAlign=top;html=1;outlineConnect=0;" parent="1" vertex="1">
            <mxGeometry x="-66" y="708.6600000000001" width="30" height="60" as="geometry" />
          </mxCell>
        </object>
        <mxCell id="F0JioWCo4Qzg_TsHQdJf-161" style="edgeStyle=orthogonalEdgeStyle;rounded=0;orthogonalLoop=1;jettySize=auto;html=1;exitX=1;exitY=0.5;exitDx=0;exitDy=0;dashed=1;" parent="1" source="F0JioWCo4Qzg_TsHQdJf-141" target="F0JioWCo4Qzg_TsHQdJf-157" edge="1">
          <mxGeometry relative="1" as="geometry" />
        </mxCell>
        <mxCell id="F0JioWCo4Qzg_TsHQdJf-141" value="회사소개" style="ellipse;whiteSpace=wrap;html=1;fontSize=11;fillColor=#f8cecc;strokeColor=#b85450;" parent="1" vertex="1">
          <mxGeometry x="64" y="618" width="90" height="41" as="geometry" />
        </mxCell>
        <mxCell id="F0JioWCo4Qzg_TsHQdJf-162" style="edgeStyle=orthogonalEdgeStyle;rounded=0;orthogonalLoop=1;jettySize=auto;html=1;exitX=1;exitY=0.5;exitDx=0;exitDy=0;entryX=0;entryY=0.5;entryDx=0;entryDy=0;dashed=1;" parent="1" source="F0JioWCo4Qzg_TsHQdJf-142" target="F0JioWCo4Qzg_TsHQdJf-158" edge="1">
          <mxGeometry relative="1" as="geometry" />
        </mxCell>
        <mxCell id="F0JioWCo4Qzg_TsHQdJf-142" value="서비스 소개" style="ellipse;whiteSpace=wrap;html=1;fontSize=11;fillColor=#f8cecc;strokeColor=#b85450;" parent="1" vertex="1">
          <mxGeometry x="64" y="718" width="90" height="41" as="geometry" />
        </mxCell>
        <mxCell id="F0JioWCo4Qzg_TsHQdJf-143" value="회원가입" style="ellipse;whiteSpace=wrap;html=1;fontSize=11;fillColor=#f8cecc;strokeColor=#b85450;" parent="1" vertex="1">
          <mxGeometry x="35" y="-12.440000000000005" width="110" height="35.56" as="geometry" />
        </mxCell>
        <mxCell id="F0JioWCo4Qzg_TsHQdJf-144" value="" style="endArrow=classic;html=1;rounded=0;exitX=1;exitY=0.5;exitDx=0;exitDy=0;" parent="1" source="F0JioWCo4Qzg_TsHQdJf-143" target="-Qgl4ysdJtrphELewiQ6-4" edge="1">
          <mxGeometry width="50" height="50" relative="1" as="geometry">
            <mxPoint x="260" y="30" as="sourcePoint" />
            <mxPoint x="170" y="5" as="targetPoint" />
          </mxGeometry>
        </mxCell>
        <mxCell id="F0JioWCo4Qzg_TsHQdJf-145" value="로그인" style="ellipse;whiteSpace=wrap;html=1;fontSize=11;fillColor=#f8cecc;strokeColor=#b85450;" parent="1" vertex="1">
          <mxGeometry x="40" y="150" width="100" height="35.56" as="geometry" />
        </mxCell>
        <mxCell id="F0JioWCo4Qzg_TsHQdJf-147" value="" style="endArrow=classic;html=1;rounded=0;entryX=0;entryY=0.5;entryDx=0;entryDy=0;" parent="1" target="F0JioWCo4Qzg_TsHQdJf-145" edge="1">
          <mxGeometry width="50" height="50" relative="1" as="geometry">
            <mxPoint x="-30" y="230" as="sourcePoint" />
            <mxPoint x="40" y="238.56" as="targetPoint" />
          </mxGeometry>
        </mxCell>
        <mxCell id="F0JioWCo4Qzg_TsHQdJf-148" value="마이페이지" style="ellipse;whiteSpace=wrap;html=1;fontSize=11;fillColor=#f8cecc;strokeColor=#b85450;" parent="1" vertex="1">
          <mxGeometry x="35" y="291.32" width="100" height="35.56" as="geometry" />
        </mxCell>
        <mxCell id="F0JioWCo4Qzg_TsHQdJf-149" value="" style="endArrow=classic;html=1;rounded=0;entryX=0;entryY=0.5;entryDx=0;entryDy=0;" parent="1" target="F0JioWCo4Qzg_TsHQdJf-148" edge="1">
          <mxGeometry width="50" height="50" relative="1" as="geometry">
            <mxPoint x="-30" y="250" as="sourcePoint" />
            <mxPoint x="40" y="378.56" as="targetPoint" />
          </mxGeometry>
        </mxCell>
        <mxCell id="F0JioWCo4Qzg_TsHQdJf-150" value="" style="endArrow=classic;html=1;rounded=0;entryX=0;entryY=0.5;entryDx=0;entryDy=0;exitX=1;exitY=0.5;exitDx=0;exitDy=0;" parent="1" source="F0JioWCo4Qzg_TsHQdJf-148" target="F0JioWCo4Qzg_TsHQdJf-131" edge="1">
          <mxGeometry width="50" height="50" relative="1" as="geometry">
            <mxPoint x="140" y="408.56" as="sourcePoint" />
            <mxPoint x="190" y="358.56" as="targetPoint" />
          </mxGeometry>
        </mxCell>
        <mxCell id="F0JioWCo4Qzg_TsHQdJf-156" value="" style="endArrow=classic;html=1;rounded=0;entryX=0;entryY=0.5;entryDx=0;entryDy=0;" parent="1" target="F0JioWCo4Qzg_TsHQdJf-141" edge="1" source="F0JioWCo4Qzg_TsHQdJf-140">
          <mxGeometry width="50" height="50" relative="1" as="geometry">
            <mxPoint x="-16" y="688" as="sourcePoint" />
            <mxPoint x="54" y="658" as="targetPoint" />
          </mxGeometry>
        </mxCell>
        <mxCell id="F0JioWCo4Qzg_TsHQdJf-157" value="회사소개 페이지로 이동한다." style="ellipse;whiteSpace=wrap;html=1;fontSize=11;" parent="1" vertex="1">
          <mxGeometry x="274" y="621.8299999999999" width="160" height="33.33" as="geometry" />
        </mxCell>
        <mxCell id="F0JioWCo4Qzg_TsHQdJf-158" value="서비스소개 페이지로 이동한다." style="ellipse;whiteSpace=wrap;html=1;fontSize=11;" parent="1" vertex="1">
          <mxGeometry x="274" y="722" width="180" height="33.33" as="geometry" />
        </mxCell>
        <mxCell id="F0JioWCo4Qzg_TsHQdJf-159" value="" style="endArrow=classic;html=1;rounded=0;entryX=0;entryY=0.5;entryDx=0;entryDy=0;" parent="1" target="F0JioWCo4Qzg_TsHQdJf-142" edge="1" source="F0JioWCo4Qzg_TsHQdJf-140">
          <mxGeometry width="50" height="50" relative="1" as="geometry">
            <mxPoint x="-16" y="698" as="sourcePoint" />
            <mxPoint x="54" y="708" as="targetPoint" />
          </mxGeometry>
        </mxCell>
        <mxCell id="F0JioWCo4Qzg_TsHQdJf-173" value="&amp;lt;&amp;lt;extend&amp;gt;&amp;gt;" style="text;html=1;strokeColor=none;fillColor=none;align=center;verticalAlign=middle;whiteSpace=wrap;rounded=0;rotation=-25;" parent="1" vertex="1">
          <mxGeometry x="197.32" y="1823.67" width="60" height="30" as="geometry" />
        </mxCell>
        <mxCell id="F0JioWCo4Qzg_TsHQdJf-174" value="administrator" style="shape=umlActor;verticalLabelPosition=bottom;verticalAlign=top;html=1;outlineConnect=0;" parent="1" vertex="1">
          <mxGeometry x="814.9999999999999" y="707.55" width="30" height="60" as="geometry" />
        </mxCell>
        <mxCell id="F0JioWCo4Qzg_TsHQdJf-177" value="&amp;lt;&amp;lt;extend&amp;gt;&amp;gt;" style="text;html=1;strokeColor=none;fillColor=none;align=center;verticalAlign=middle;whiteSpace=wrap;rounded=0;rotation=0;" parent="1" vertex="1">
          <mxGeometry x="184" y="610" width="60" height="30" as="geometry" />
        </mxCell>
        <mxCell id="F0JioWCo4Qzg_TsHQdJf-178" value="&amp;lt;&amp;lt;extend&amp;gt;&amp;gt;" style="text;html=1;strokeColor=none;fillColor=none;align=center;verticalAlign=middle;whiteSpace=wrap;rounded=0;rotation=0;" parent="1" vertex="1">
          <mxGeometry x="184" y="718" width="60" height="30" as="geometry" />
        </mxCell>
        <mxCell id="F0JioWCo4Qzg_TsHQdJf-186" value="소개 메뉴 관리" style="ellipse;whiteSpace=wrap;html=1;fontSize=11;fillColor=#e1d5e7;strokeColor=#9673a6;" parent="1" vertex="1">
          <mxGeometry x="619" y="719.77" width="100" height="35.56" as="geometry" />
        </mxCell>
        <mxCell id="F0JioWCo4Qzg_TsHQdJf-187" value="" style="endArrow=classic;html=1;rounded=0;entryX=1;entryY=0.5;entryDx=0;entryDy=0;exitX=0;exitY=0.5;exitDx=0;exitDy=0;dashed=1;" parent="1" source="F0JioWCo4Qzg_TsHQdJf-186" target="F0JioWCo4Qzg_TsHQdJf-157" edge="1">
          <mxGeometry width="50" height="50" relative="1" as="geometry">
            <mxPoint x="576" y="778" as="sourcePoint" />
            <mxPoint x="626" y="728" as="targetPoint" />
          </mxGeometry>
        </mxCell>
        <mxCell id="F0JioWCo4Qzg_TsHQdJf-188" value="" style="endArrow=classic;html=1;rounded=0;exitX=0;exitY=0.5;exitDx=0;exitDy=0;entryX=1;entryY=0.5;entryDx=0;entryDy=0;dashed=1;" parent="1" source="F0JioWCo4Qzg_TsHQdJf-186" target="F0JioWCo4Qzg_TsHQdJf-158" edge="1">
          <mxGeometry width="50" height="50" relative="1" as="geometry">
            <mxPoint x="556" y="758" as="sourcePoint" />
            <mxPoint x="606" y="708" as="targetPoint" />
          </mxGeometry>
        </mxCell>
        <mxCell id="F0JioWCo4Qzg_TsHQdJf-189" value="" style="endArrow=classic;html=1;rounded=0;entryX=1;entryY=0.5;entryDx=0;entryDy=0;" parent="1" target="F0JioWCo4Qzg_TsHQdJf-186" edge="1" source="F0JioWCo4Qzg_TsHQdJf-174">
          <mxGeometry width="50" height="50" relative="1" as="geometry">
            <mxPoint x="816" y="688" as="sourcePoint" />
            <mxPoint x="786" y="688" as="targetPoint" />
          </mxGeometry>
        </mxCell>
        <mxCell id="F0JioWCo4Qzg_TsHQdJf-190" value="&amp;lt;&amp;lt;include&amp;gt;&amp;gt;" style="text;html=1;strokeColor=none;fillColor=none;align=center;verticalAlign=middle;whiteSpace=wrap;rounded=0;rotation=30;" parent="1" vertex="1">
          <mxGeometry x="512.32" y="674.22" width="60" height="30" as="geometry" />
        </mxCell>
        <mxCell id="F0JioWCo4Qzg_TsHQdJf-191" value="&amp;lt;&amp;lt;include&amp;gt;&amp;gt;" style="text;html=1;strokeColor=none;fillColor=none;align=center;verticalAlign=middle;whiteSpace=wrap;rounded=0;rotation=0;" parent="1" vertex="1">
          <mxGeometry x="506" y="715.6600000000001" width="60" height="30" as="geometry" />
        </mxCell>
        <mxCell id="VsZICWmMm7ssSR9VKL0D-2" value="오시는 길" style="ellipse;whiteSpace=wrap;html=1;fontSize=11;fillColor=#f8cecc;strokeColor=#b85450;" vertex="1" parent="1">
          <mxGeometry x="65.51" y="820.1600000000001" width="90" height="41" as="geometry" />
        </mxCell>
        <mxCell id="VsZICWmMm7ssSR9VKL0D-3" value="오시는 길 페이지로 이동한다." style="ellipse;whiteSpace=wrap;html=1;fontSize=11;" vertex="1" parent="1">
          <mxGeometry x="274" y="824" width="180" height="33.33" as="geometry" />
        </mxCell>
        <mxCell id="VsZICWmMm7ssSR9VKL0D-4" value="" style="endArrow=classic;html=1;rounded=0;entryX=0;entryY=0.5;entryDx=0;entryDy=0;" edge="1" parent="1" source="F0JioWCo4Qzg_TsHQdJf-140" target="VsZICWmMm7ssSR9VKL0D-2">
          <mxGeometry width="50" height="50" relative="1" as="geometry">
            <mxPoint x="-26" y="749" as="sourcePoint" />
            <mxPoint x="74" y="749" as="targetPoint" />
          </mxGeometry>
        </mxCell>
        <mxCell id="VsZICWmMm7ssSR9VKL0D-5" style="edgeStyle=orthogonalEdgeStyle;rounded=0;orthogonalLoop=1;jettySize=auto;html=1;exitX=1;exitY=0.5;exitDx=0;exitDy=0;entryX=0;entryY=0.5;entryDx=0;entryDy=0;dashed=1;" edge="1" parent="1" source="VsZICWmMm7ssSR9VKL0D-2" target="VsZICWmMm7ssSR9VKL0D-3">
          <mxGeometry relative="1" as="geometry">
            <mxPoint x="164" y="749" as="sourcePoint" />
            <mxPoint x="284" y="749" as="targetPoint" />
          </mxGeometry>
        </mxCell>
        <mxCell id="VsZICWmMm7ssSR9VKL0D-6" value="&amp;lt;&amp;lt;extend&amp;gt;&amp;gt;" style="text;html=1;strokeColor=none;fillColor=none;align=center;verticalAlign=middle;whiteSpace=wrap;rounded=0;rotation=0;" vertex="1" parent="1">
          <mxGeometry x="184" y="819" width="60" height="30" as="geometry" />
        </mxCell>
        <mxCell id="VsZICWmMm7ssSR9VKL0D-9" value="" style="endArrow=classic;html=1;rounded=0;exitX=0;exitY=0.5;exitDx=0;exitDy=0;entryX=1;entryY=0.5;entryDx=0;entryDy=0;dashed=1;" edge="1" parent="1" source="F0JioWCo4Qzg_TsHQdJf-186" target="VsZICWmMm7ssSR9VKL0D-3">
          <mxGeometry width="50" height="50" relative="1" as="geometry">
            <mxPoint x="629" y="748" as="sourcePoint" />
            <mxPoint x="464" y="749" as="targetPoint" />
          </mxGeometry>
        </mxCell>
        <mxCell id="VsZICWmMm7ssSR9VKL0D-10" value="&amp;lt;&amp;lt;include&amp;gt;&amp;gt;" style="text;html=1;strokeColor=none;fillColor=none;align=center;verticalAlign=middle;whiteSpace=wrap;rounded=0;rotation=-34;" vertex="1" parent="1">
          <mxGeometry x="513" y="763" width="60" height="30" as="geometry" />
        </mxCell>
        <mxCell id="VsZICWmMm7ssSR9VKL0D-11" value="" style="rounded=0;whiteSpace=wrap;html=1;" vertex="1" parent="1">
          <mxGeometry x="12" y="1009" width="737" height="349" as="geometry" />
        </mxCell>
        <mxCell id="VsZICWmMm7ssSR9VKL0D-12" value="&lt;span style=&quot;font-size: 15px;&quot;&gt;교육 목표&lt;/span&gt;" style="text;html=1;align=center;verticalAlign=middle;resizable=0;points=[];autosize=1;strokeColor=none;fillColor=none;fontSize=14;fontStyle=1" vertex="1" parent="1">
          <mxGeometry x="323" y="979" width="82" height="30" as="geometry" />
        </mxCell>
        <object label="User" id="VsZICWmMm7ssSR9VKL0D-13">
          <mxCell style="shape=umlActor;verticalLabelPosition=bottom;verticalAlign=top;html=1;outlineConnect=0;" vertex="1" parent="1">
            <mxGeometry x="-63" y="1149.6599999999999" width="30" height="60" as="geometry" />
          </mxCell>
        </object>
        <mxCell id="VsZICWmMm7ssSR9VKL0D-14" style="edgeStyle=orthogonalEdgeStyle;rounded=0;orthogonalLoop=1;jettySize=auto;html=1;exitX=1;exitY=0.5;exitDx=0;exitDy=0;dashed=1;" edge="1" parent="1" source="VsZICWmMm7ssSR9VKL0D-15" target="VsZICWmMm7ssSR9VKL0D-19">
          <mxGeometry relative="1" as="geometry" />
        </mxCell>
        <mxCell id="VsZICWmMm7ssSR9VKL0D-15" value="유아" style="ellipse;whiteSpace=wrap;html=1;fontSize=11;fillColor=#f8cecc;strokeColor=#b85450;" vertex="1" parent="1">
          <mxGeometry x="67" y="1059" width="90" height="41" as="geometry" />
        </mxCell>
        <mxCell id="VsZICWmMm7ssSR9VKL0D-16" style="edgeStyle=orthogonalEdgeStyle;rounded=0;orthogonalLoop=1;jettySize=auto;html=1;exitX=1;exitY=0.5;exitDx=0;exitDy=0;entryX=0;entryY=0.5;entryDx=0;entryDy=0;dashed=1;" edge="1" parent="1" source="VsZICWmMm7ssSR9VKL0D-17" target="VsZICWmMm7ssSR9VKL0D-20">
          <mxGeometry relative="1" as="geometry" />
        </mxCell>
        <mxCell id="VsZICWmMm7ssSR9VKL0D-17" value="초등" style="ellipse;whiteSpace=wrap;html=1;fontSize=11;fillColor=#f8cecc;strokeColor=#b85450;" vertex="1" parent="1">
          <mxGeometry x="67" y="1159" width="90" height="41" as="geometry" />
        </mxCell>
        <mxCell id="VsZICWmMm7ssSR9VKL0D-18" value="" style="endArrow=classic;html=1;rounded=0;entryX=0;entryY=0.5;entryDx=0;entryDy=0;" edge="1" parent="1" source="VsZICWmMm7ssSR9VKL0D-13" target="VsZICWmMm7ssSR9VKL0D-15">
          <mxGeometry width="50" height="50" relative="1" as="geometry">
            <mxPoint x="-13" y="1129" as="sourcePoint" />
            <mxPoint x="57" y="1099" as="targetPoint" />
          </mxGeometry>
        </mxCell>
        <mxCell id="VsZICWmMm7ssSR9VKL0D-19" value="유아 페이지로 이동한다." style="ellipse;whiteSpace=wrap;html=1;fontSize=11;" vertex="1" parent="1">
          <mxGeometry x="277" y="1062.83" width="160" height="33.33" as="geometry" />
        </mxCell>
        <mxCell id="VsZICWmMm7ssSR9VKL0D-20" value="초등 페이지로 이동한다." style="ellipse;whiteSpace=wrap;html=1;fontSize=11;" vertex="1" parent="1">
          <mxGeometry x="277" y="1163" width="180" height="33.33" as="geometry" />
        </mxCell>
        <mxCell id="VsZICWmMm7ssSR9VKL0D-21" value="" style="endArrow=classic;html=1;rounded=0;entryX=0;entryY=0.5;entryDx=0;entryDy=0;" edge="1" parent="1" source="VsZICWmMm7ssSR9VKL0D-13" target="VsZICWmMm7ssSR9VKL0D-17">
          <mxGeometry width="50" height="50" relative="1" as="geometry">
            <mxPoint x="-13" y="1139" as="sourcePoint" />
            <mxPoint x="57" y="1149" as="targetPoint" />
          </mxGeometry>
        </mxCell>
        <mxCell id="VsZICWmMm7ssSR9VKL0D-22" value="administrator" style="shape=umlActor;verticalLabelPosition=bottom;verticalAlign=top;html=1;outlineConnect=0;" vertex="1" parent="1">
          <mxGeometry x="817.9999999999999" y="1148.5499999999997" width="30" height="60" as="geometry" />
        </mxCell>
        <mxCell id="VsZICWmMm7ssSR9VKL0D-23" value="&amp;lt;&amp;lt;extend&amp;gt;&amp;gt;" style="text;html=1;strokeColor=none;fillColor=none;align=center;verticalAlign=middle;whiteSpace=wrap;rounded=0;rotation=0;" vertex="1" parent="1">
          <mxGeometry x="187" y="1051" width="60" height="30" as="geometry" />
        </mxCell>
        <mxCell id="VsZICWmMm7ssSR9VKL0D-24" value="&amp;lt;&amp;lt;extend&amp;gt;&amp;gt;" style="text;html=1;strokeColor=none;fillColor=none;align=center;verticalAlign=middle;whiteSpace=wrap;rounded=0;rotation=0;" vertex="1" parent="1">
          <mxGeometry x="187" y="1159" width="60" height="30" as="geometry" />
        </mxCell>
        <mxCell id="VsZICWmMm7ssSR9VKL0D-25" value="교육 목표 메뉴 관리" style="ellipse;whiteSpace=wrap;html=1;fontSize=11;fillColor=#e1d5e7;strokeColor=#9673a6;" vertex="1" parent="1">
          <mxGeometry x="612" y="1160.77" width="110" height="35.56" as="geometry" />
        </mxCell>
        <mxCell id="VsZICWmMm7ssSR9VKL0D-26" value="" style="endArrow=classic;html=1;rounded=0;entryX=1;entryY=0.5;entryDx=0;entryDy=0;exitX=0;exitY=0.5;exitDx=0;exitDy=0;dashed=1;" edge="1" parent="1" source="VsZICWmMm7ssSR9VKL0D-25" target="VsZICWmMm7ssSR9VKL0D-19">
          <mxGeometry width="50" height="50" relative="1" as="geometry">
            <mxPoint x="579" y="1219" as="sourcePoint" />
            <mxPoint x="629" y="1169" as="targetPoint" />
          </mxGeometry>
        </mxCell>
        <mxCell id="VsZICWmMm7ssSR9VKL0D-27" value="" style="endArrow=classic;html=1;rounded=0;exitX=0;exitY=0.5;exitDx=0;exitDy=0;entryX=1;entryY=0.5;entryDx=0;entryDy=0;dashed=1;" edge="1" parent="1" source="VsZICWmMm7ssSR9VKL0D-25" target="VsZICWmMm7ssSR9VKL0D-20">
          <mxGeometry width="50" height="50" relative="1" as="geometry">
            <mxPoint x="559" y="1199" as="sourcePoint" />
            <mxPoint x="609" y="1149" as="targetPoint" />
          </mxGeometry>
        </mxCell>
        <mxCell id="VsZICWmMm7ssSR9VKL0D-28" value="" style="endArrow=classic;html=1;rounded=0;entryX=1;entryY=0.5;entryDx=0;entryDy=0;" edge="1" parent="1" source="VsZICWmMm7ssSR9VKL0D-22" target="VsZICWmMm7ssSR9VKL0D-25">
          <mxGeometry width="50" height="50" relative="1" as="geometry">
            <mxPoint x="819" y="1129" as="sourcePoint" />
            <mxPoint x="789" y="1129" as="targetPoint" />
          </mxGeometry>
        </mxCell>
        <mxCell id="VsZICWmMm7ssSR9VKL0D-29" value="&amp;lt;&amp;lt;include&amp;gt;&amp;gt;" style="text;html=1;strokeColor=none;fillColor=none;align=center;verticalAlign=middle;whiteSpace=wrap;rounded=0;rotation=30;" vertex="1" parent="1">
          <mxGeometry x="512.32" y="1116.2199999999998" width="60" height="30" as="geometry" />
        </mxCell>
        <mxCell id="VsZICWmMm7ssSR9VKL0D-30" value="&amp;lt;&amp;lt;include&amp;gt;&amp;gt;" style="text;html=1;strokeColor=none;fillColor=none;align=center;verticalAlign=middle;whiteSpace=wrap;rounded=0;rotation=0;" vertex="1" parent="1">
          <mxGeometry x="504" y="1157.6599999999999" width="60" height="30" as="geometry" />
        </mxCell>
        <mxCell id="VsZICWmMm7ssSR9VKL0D-31" value="중고등" style="ellipse;whiteSpace=wrap;html=1;fontSize=11;fillColor=#f8cecc;strokeColor=#b85450;" vertex="1" parent="1">
          <mxGeometry x="68.51" y="1261.1600000000003" width="90" height="41" as="geometry" />
        </mxCell>
        <mxCell id="VsZICWmMm7ssSR9VKL0D-32" value="중고등 페이지로 이동한다." style="ellipse;whiteSpace=wrap;html=1;fontSize=11;" vertex="1" parent="1">
          <mxGeometry x="277" y="1265" width="180" height="33.33" as="geometry" />
        </mxCell>
        <mxCell id="VsZICWmMm7ssSR9VKL0D-33" value="" style="endArrow=classic;html=1;rounded=0;entryX=0;entryY=0.5;entryDx=0;entryDy=0;" edge="1" parent="1" source="VsZICWmMm7ssSR9VKL0D-13" target="VsZICWmMm7ssSR9VKL0D-31">
          <mxGeometry width="50" height="50" relative="1" as="geometry">
            <mxPoint x="-23" y="1190" as="sourcePoint" />
            <mxPoint x="77" y="1190" as="targetPoint" />
          </mxGeometry>
        </mxCell>
        <mxCell id="VsZICWmMm7ssSR9VKL0D-34" style="edgeStyle=orthogonalEdgeStyle;rounded=0;orthogonalLoop=1;jettySize=auto;html=1;exitX=1;exitY=0.5;exitDx=0;exitDy=0;entryX=0;entryY=0.5;entryDx=0;entryDy=0;dashed=1;" edge="1" parent="1" source="VsZICWmMm7ssSR9VKL0D-31" target="VsZICWmMm7ssSR9VKL0D-32">
          <mxGeometry relative="1" as="geometry">
            <mxPoint x="167" y="1190" as="sourcePoint" />
            <mxPoint x="287" y="1190" as="targetPoint" />
          </mxGeometry>
        </mxCell>
        <mxCell id="VsZICWmMm7ssSR9VKL0D-35" value="&amp;lt;&amp;lt;extend&amp;gt;&amp;gt;" style="text;html=1;strokeColor=none;fillColor=none;align=center;verticalAlign=middle;whiteSpace=wrap;rounded=0;rotation=0;" vertex="1" parent="1">
          <mxGeometry x="187" y="1260" width="60" height="30" as="geometry" />
        </mxCell>
        <mxCell id="VsZICWmMm7ssSR9VKL0D-36" value="" style="endArrow=classic;html=1;rounded=0;exitX=0;exitY=0.5;exitDx=0;exitDy=0;entryX=1;entryY=0.5;entryDx=0;entryDy=0;dashed=1;" edge="1" parent="1" source="VsZICWmMm7ssSR9VKL0D-25" target="VsZICWmMm7ssSR9VKL0D-32">
          <mxGeometry width="50" height="50" relative="1" as="geometry">
            <mxPoint x="632" y="1189" as="sourcePoint" />
            <mxPoint x="467" y="1190" as="targetPoint" />
          </mxGeometry>
        </mxCell>
        <mxCell id="VsZICWmMm7ssSR9VKL0D-37" value="&amp;lt;&amp;lt;include&amp;gt;&amp;gt;" style="text;html=1;strokeColor=none;fillColor=none;align=center;verticalAlign=middle;whiteSpace=wrap;rounded=0;rotation=-34;" vertex="1" parent="1">
          <mxGeometry x="505" y="1208" width="60" height="30" as="geometry" />
        </mxCell>
      </root>
    </mxGraphModel>
  </diagram>
</mxfile>
